<svg xmlns="http://www.w3.org/2000/svg" xmlns:xlink="http://www.w3.org/1999/xlink" width="500" zoomAndPan="magnify" viewBox="0 0 375 374.999991" height="500" preserveAspectRatio="xMidYMid meet" version="1.0"><defs><g/><clipPath id="id1"><path d="M 49 108.574219 L 185 108.574219 L 185 246 L 49 246 Z M 49 108.574219 " clip-rule="nonzero"/></clipPath><clipPath id="id2"><path d="M 46.003906 124 L 187.496094 124 L 187.496094 267.574219 L 46.003906 267.574219 Z M 46.003906 124 " clip-rule="nonzero"/></clipPath></defs><g clip-path="url(#id1)"><path fill="#4fd1c5" d="M 184.457031 219.320312 L 116.875 245.234375 L 49.292969 219.320312 L 49.292969 108.652344 L 116.875 134.566406 L 184.453125 108.652344 L 184.453125 219.320312 " fill-opacity="1" fill-rule="nonzero"/></g><g clip-path="url(#id2)"><path fill="#000000" d="M 185.332031 241.535156 C 170.535156 247.210938 155.742188 252.882812 140.949219 258.554688 C 133.742188 261.320312 126.53125 264.082031 119.324219 266.847656 C 117.980469 267.363281 116.871094 267.785156 115.417969 267.226562 C 113.136719 266.351562 110.855469 265.480469 108.574219 264.605469 C 90.609375 257.714844 72.644531 250.828125 54.679688 243.9375 C 52.59375 243.136719 50.503906 242.335938 48.417969 241.535156 C 47.03125 241.003906 46 239.9375 46 238.367188 C 46 225.632812 46 212.902344 46 200.167969 L 46 127.699219 C 46 125.722656 48.136719 123.753906 50.167969 124.53125 C 64.960938 130.203125 79.753906 135.875 94.546875 141.546875 C 102.28125 144.515625 110.015625 147.476562 117.75 150.441406 L 116 150.441406 C 130.789062 144.769531 145.585938 139.097656 160.378906 133.425781 C 168.113281 130.460938 175.847656 127.496094 183.582031 124.53125 C 185.613281 123.753906 187.746094 125.722656 187.746094 127.699219 L 187.746094 238.371094 C 187.746094 242.609375 181.164062 242.609375 181.164062 238.371094 L 181.164062 127.703125 C 182.550781 128.757812 183.941406 129.8125 185.328125 130.871094 C 170.535156 136.542969 155.742188 142.214844 140.949219 147.882812 C 133.738281 150.652344 126.53125 153.414062 119.324219 156.175781 C 117.980469 156.691406 116.867188 157.113281 115.417969 156.558594 C 113.136719 155.683594 110.855469 154.808594 108.570312 153.933594 C 90.609375 147.046875 72.644531 140.160156 54.675781 133.269531 C 52.589844 132.472656 50.503906 131.671875 48.417969 130.871094 C 49.804688 129.8125 51.195312 128.757812 52.582031 127.703125 L 52.582031 238.371094 C 51.777344 237.316406 50.972656 236.257812 50.167969 235.203125 C 64.960938 240.875 79.753906 246.550781 94.546875 252.222656 C 102.28125 255.1875 110.015625 258.152344 117.75 261.117188 L 116 261.117188 C 130.789062 255.445312 145.582031 249.773438 160.378906 244.097656 C 168.113281 241.136719 175.847656 238.167969 183.582031 235.203125 C 185.253906 234.558594 187.1875 235.898438 187.628906 237.496094 C 188.140625 239.355469 187 240.898438 185.328125 241.539062 " fill-opacity="1" fill-rule="nonzero"/></g><g fill="#ffffff" fill-opacity="1"><g transform="translate(36.071322, 208.874986)"><g/></g></g><g fill="#ffffff" fill-opacity="1"><g transform="translate(50.731477, 208.874986)"><g><path d="M 58.84375 -18.75 C 59.21875 -18.707031 59.523438 -18.488281 59.765625 -18.09375 C 60.015625 -17.707031 60.097656 -17.304688 60.015625 -16.890625 C 59.929688 -16.023438 59.375 -15.53125 58.34375 -15.40625 C 53.4375 -14.789062 49.664062 -14.128906 47.03125 -13.421875 C 46.363281 -10.660156 45.429688 -7.816406 44.234375 -4.890625 C 42.796875 -1.335938 41.289062 1.703125 39.71875 4.234375 C 38.15625 6.773438 36.195312 8.785156 33.84375 10.265625 C 32.476562 11.171875 31.007812 11.726562 29.4375 11.9375 C 27.875 12.144531 26.332031 11.921875 24.8125 11.265625 C 23.613281 10.640625 22.613281 9.738281 21.8125 8.5625 C 21.007812 7.394531 20.585938 6.171875 20.546875 4.890625 C 20.421875 2.617188 21.632812 0 24.1875 -2.96875 C 25.96875 -5.113281 27.785156 -6.96875 29.640625 -8.53125 C 32.859375 -11.382812 36.382812 -13.695312 40.21875 -15.46875 C 41.207031 -19.632812 41.554688 -23.507812 41.265625 -27.09375 C 40.898438 -31.59375 39.457031 -35.617188 36.9375 -39.171875 C 34.582031 -42.460938 31.222656 -44.894531 26.859375 -46.46875 C 24.003906 -47.539062 20.910156 -48.054688 17.578125 -48.015625 C 17.773438 -46.117188 17.894531 -42.238281 17.9375 -36.375 C 17.9375 -35.46875 17.945312 -33.570312 17.96875 -30.6875 C 17.988281 -27.800781 18 -25.570312 18 -24 C 18 -17.570312 18 -13.445312 18 -11.625 C 17.957031 -9.488281 17.957031 -7.445312 18 -5.5 C 18 -2.570312 17.878906 -0.550781 17.640625 0.5625 C 17.429688 1.257812 17.003906 1.738281 16.359375 2 C 15.722656 2.269531 15.070312 2.257812 14.40625 1.96875 C 13.75 1.6875 13.320312 1.21875 13.125 0.5625 C 12.832031 -0.507812 12.625 -2.59375 12.5 -5.6875 C 12.414062 -7.625 12.351562 -9.601562 12.3125 -11.625 C 12.1875 -15.382812 12.101562 -19.59375 12.0625 -24.25 C 12.019531 -26.070312 12.039062 -30.28125 12.125 -36.875 C 12.164062 -41.695312 12.3125 -45.222656 12.5625 -47.453125 C 11.570312 -47.171875 10.625 -46.757812 9.71875 -46.21875 C 8.6875 -45.601562 7.773438 -44.847656 6.984375 -43.953125 C 6.203125 -43.066406 6 -42.191406 6.375 -41.328125 C 6.582031 -40.796875 6.507812 -40.269531 6.15625 -39.75 C 5.800781 -39.238281 5.375 -38.984375 4.875 -38.984375 C 4.382812 -38.984375 3.976562 -39.25 3.65625 -39.78125 C 3.363281 -40.445312 3.1875 -41.097656 3.125 -41.734375 C 3.0625 -42.367188 3.101562 -42.953125 3.25 -43.484375 C 3.394531 -44.023438 3.617188 -44.5625 3.921875 -45.09375 C 4.234375 -45.632812 4.601562 -46.117188 5.03125 -46.546875 C 5.46875 -46.984375 5.960938 -47.410156 6.515625 -47.828125 C 7.078125 -48.242188 7.632812 -48.613281 8.1875 -48.9375 C 8.75 -49.269531 9.335938 -49.597656 9.953125 -49.921875 C 10.578125 -50.253906 11.15625 -50.523438 11.6875 -50.734375 C 12.226562 -50.941406 12.765625 -51.148438 13.296875 -51.359375 C 16.066406 -52.304688 18.863281 -52.769531 21.6875 -52.75 C 24.507812 -52.726562 27.304688 -52.304688 30.078125 -51.484375 C 32.015625 -50.898438 33.847656 -50.101562 35.578125 -49.09375 C 37.304688 -48.082031 38.894531 -46.875 40.34375 -45.46875 C 41.789062 -44.070312 43.046875 -42.507812 44.109375 -40.78125 C 47.085938 -36.03125 48.535156 -30.398438 48.453125 -23.890625 C 48.453125 -22.066406 48.304688 -20.1875 48.015625 -18.25 C 51.765625 -19.113281 55.375 -19.28125 58.84375 -18.75 Z M 33.109375 1.234375 C 35.210938 -1.609375 37.046875 -5.363281 38.609375 -10.03125 C 36.054688 -8.664062 33.785156 -7.054688 31.796875 -5.203125 C 29.984375 -3.546875 28.539062 -1.957031 27.46875 -0.4375 C 27.46875 -0.4375 27.34375 -0.257812 27.09375 0.09375 C 26.851562 0.445312 26.679688 0.703125 26.578125 0.859375 C 26.472656 1.023438 26.316406 1.285156 26.109375 1.640625 C 25.898438 1.992188 25.753906 2.289062 25.671875 2.53125 C 25.585938 2.78125 25.503906 3.050781 25.421875 3.34375 C 25.347656 3.632812 25.34375 3.898438 25.40625 4.140625 C 25.46875 4.390625 25.554688 4.617188 25.671875 4.828125 C 26.085938 5.117188 26.625 5.265625 27.28125 5.265625 C 27.945312 5.265625 28.460938 5.203125 28.828125 5.078125 C 30.191406 4.535156 31.617188 3.253906 33.109375 1.234375 Z M 33.109375 1.234375 "/></g></g></g><g fill="#ffffff" fill-opacity="1"><g transform="translate(102.634836, 208.874986)"><g><path d="M 16.09375 -22.703125 C 16.664062 -23.242188 17.25 -23.285156 17.84375 -22.828125 C 18.445312 -22.378906 18.582031 -21.800781 18.25 -21.09375 C 17.800781 -20.144531 17.273438 -19.257812 16.671875 -18.4375 C 16.078125 -17.613281 15.382812 -16.847656 14.59375 -16.140625 C 13.8125 -15.441406 13 -14.894531 12.15625 -14.5 C 11.3125 -14.113281 10.382812 -13.960938 9.375 -14.046875 C 8.363281 -14.128906 7.363281 -14.5 6.375 -15.15625 C 5.21875 -15.894531 4.328125 -16.9375 3.703125 -18.28125 C 3.085938 -19.625 2.800781 -21.015625 2.84375 -22.453125 C 2.882812 -23.367188 3.03125 -24.878906 3.28125 -26.984375 C 3.53125 -29.117188 3.796875 -30.625 4.078125 -31.5 C 4.328125 -32.195312 4.789062 -32.660156 5.46875 -32.890625 C 6.15625 -33.117188 6.785156 -33.046875 7.359375 -32.671875 C 7.941406 -32.296875 8.234375 -31.71875 8.234375 -30.9375 C 8.316406 -29.78125 8.171875 -27.453125 7.796875 -23.953125 C 7.585938 -21.722656 7.851562 -20.09375 8.59375 -19.0625 C 9.050781 -18.519531 9.546875 -18.226562 10.078125 -18.1875 C 10.617188 -18.144531 11.195312 -18.328125 11.8125 -18.734375 C 12.4375 -19.148438 12.972656 -19.566406 13.421875 -19.984375 C 13.878906 -20.398438 14.394531 -20.925781 14.96875 -21.5625 C 15.550781 -22.195312 15.925781 -22.578125 16.09375 -22.703125 Z M 8.96875 -37 C 8.5625 -36.175781 7.863281 -35.765625 6.875 -35.765625 C 5.882812 -35.765625 5.191406 -36.175781 4.796875 -37 C 4.398438 -37.820312 4.398438 -38.632812 4.796875 -39.4375 C 5.191406 -40.25 5.882812 -40.65625 6.875 -40.65625 C 7.863281 -40.65625 8.5625 -40.25 8.96875 -39.4375 C 9.382812 -38.632812 9.382812 -37.820312 8.96875 -37 Z M 8.96875 -37 "/></g></g></g><g fill="#ffffff" fill-opacity="1"><g transform="translate(115.007512, 208.874986)"><g><path d="M 26.484375 -24.0625 C 26.890625 -24.4375 27.378906 -24.476562 27.953125 -24.1875 C 28.535156 -23.90625 28.726562 -23.472656 28.53125 -22.890625 C 28.28125 -22.148438 27.925781 -21.367188 27.46875 -20.546875 C 27.019531 -19.722656 26.492188 -18.882812 25.890625 -18.03125 C 25.296875 -17.1875 24.625 -16.453125 23.875 -15.828125 C 23.132812 -15.210938 22.375 -14.71875 21.59375 -14.34375 C 20.8125 -13.976562 19.976562 -13.859375 19.09375 -13.984375 C 18.207031 -14.109375 17.367188 -14.519531 16.578125 -15.21875 C 15.835938 -15.882812 15.257812 -16.734375 14.84375 -17.765625 C 13.320312 -16.234375 11.550781 -15.40625 9.53125 -15.28125 C 7.757812 -15.15625 6.191406 -15.566406 4.828125 -16.515625 C 3.460938 -17.460938 2.488281 -18.671875 1.90625 -20.140625 C 1.332031 -21.609375 1.054688 -23.207031 1.078125 -24.9375 C 1.097656 -26.664062 1.503906 -28.234375 2.296875 -29.640625 C 3.035156 -31.078125 4.125 -32.238281 5.5625 -33.125 C 7.007812 -34.019531 8.535156 -34.445312 10.140625 -34.40625 C 12.867188 -34.40625 15.054688 -33.414062 16.703125 -31.4375 C 16.828125 -31.71875 17.035156 -32.15625 17.328125 -32.75 C 17.617188 -33.351562 17.820312 -33.78125 17.9375 -34.03125 C 18.226562 -34.6875 18.753906 -34.847656 19.515625 -34.515625 C 20.285156 -34.191406 20.546875 -33.679688 20.296875 -32.984375 C 19.472656 -30.378906 18.832031 -27.898438 18.375 -25.546875 C 17.71875 -22.335938 17.863281 -20.007812 18.8125 -18.5625 C 19.101562 -18.101562 19.453125 -17.820312 19.859375 -17.71875 C 20.273438 -17.625 20.6875 -17.695312 21.09375 -17.9375 C 21.507812 -18.1875 21.921875 -18.503906 22.328125 -18.890625 C 22.742188 -19.285156 23.164062 -19.757812 23.59375 -20.3125 C 24.03125 -20.875 24.414062 -21.390625 24.75 -21.859375 C 25.082031 -22.335938 25.410156 -22.785156 25.734375 -23.203125 C 26.066406 -23.617188 26.316406 -23.90625 26.484375 -24.0625 Z M 8.65625 -20.671875 C 8.988281 -20.503906 9.328125 -20.421875 9.671875 -20.421875 C 10.023438 -20.421875 10.347656 -20.460938 10.640625 -20.546875 C 10.929688 -20.628906 11.21875 -20.757812 11.5 -20.9375 C 11.789062 -21.125 12.050781 -21.320312 12.28125 -21.53125 C 12.507812 -21.738281 12.753906 -21.992188 13.015625 -22.296875 C 13.285156 -22.609375 13.503906 -22.878906 13.671875 -23.109375 C 13.835938 -23.335938 14.023438 -23.617188 14.234375 -23.953125 C 14.273438 -24.191406 14.316406 -24.414062 14.359375 -24.625 C 14.566406 -25.820312 14.914062 -27.101562 15.40625 -28.46875 C 13.09375 -30.363281 11.050781 -30.796875 9.28125 -29.765625 C 8.375 -29.222656 7.691406 -28.4375 7.234375 -27.40625 C 6.867188 -26.664062 6.664062 -25.84375 6.625 -24.9375 C 6.625 -24.601562 6.625 -24.289062 6.625 -24 C 6.625 -23.84375 6.625 -23.765625 6.625 -23.765625 C 6.664062 -23.722656 6.6875 -23.640625 6.6875 -23.515625 C 6.726562 -23.304688 6.789062 -23.054688 6.875 -22.765625 C 6.945312 -22.554688 7.003906 -22.414062 7.046875 -22.34375 C 7.460938 -21.507812 8 -20.953125 8.65625 -20.671875 Z M 8.65625 -20.671875 "/></g></g></g><g fill="#ffffff" fill-opacity="1"><g transform="translate(137.278319, 208.874986)"><g><path d="M 12.6875 -34.34375 C 14.375 -34.550781 15.804688 -34.066406 16.984375 -32.890625 C 18.160156 -31.710938 18.6875 -30.28125 18.5625 -28.59375 C 18.394531 -26.601562 17.628906 -25.21875 16.265625 -24.4375 C 15.359375 -23.863281 14.421875 -23.726562 13.453125 -24.03125 C 12.484375 -24.34375 11.859375 -24.992188 11.578125 -25.984375 C 11.328125 -26.847656 11.582031 -27.46875 12.34375 -27.84375 C 13.101562 -28.21875 13.773438 -28.113281 14.359375 -27.53125 C 14.597656 -27.65625 14.738281 -27.757812 14.78125 -27.84375 C 15.03125 -28.050781 15.195312 -28.378906 15.28125 -28.828125 C 15.445312 -29.660156 15.222656 -30.300781 14.609375 -30.75 C 13.859375 -31.082031 13.132812 -31.125 12.4375 -30.875 C 11.738281 -30.625 11.097656 -30.234375 10.515625 -29.703125 C 9.523438 -28.753906 8.90625 -27.226562 8.65625 -25.125 C 8.65625 -24.875 8.65625 -24.707031 8.65625 -24.625 C 8.78125 -23.300781 8.863281 -21.488281 8.90625 -19.1875 C 8.988281 -18.394531 9 -17.441406 8.9375 -16.328125 C 8.875 -15.222656 8.679688 -14.316406 8.359375 -13.609375 C 7.984375 -12.992188 7.460938 -12.707031 6.796875 -12.75 C 6.140625 -12.789062 5.628906 -13.097656 5.265625 -13.671875 C 5.222656 -13.671875 5.203125 -13.648438 5.203125 -13.609375 C 4.992188 -13.941406 4.816406 -14.351562 4.671875 -14.84375 C 4.523438 -15.34375 4.429688 -15.722656 4.390625 -15.984375 C 4.347656 -16.253906 4.304688 -16.75 4.265625 -17.46875 C 4.222656 -18.195312 4.203125 -18.601562 4.203125 -18.6875 C 4.160156 -19.34375 4.078125 -20.28125 3.953125 -21.5 C 3.835938 -22.71875 3.78125 -23.453125 3.78125 -23.703125 C 3.488281 -26.796875 3.09375 -30.03125 2.59375 -33.40625 C 2.507812 -34.15625 2.765625 -34.734375 3.359375 -35.140625 C 3.960938 -35.554688 4.554688 -35.472656 5.140625 -34.890625 C 6.085938 -33.941406 6.847656 -32.6875 7.421875 -31.125 C 8.828125 -32.976562 10.582031 -34.050781 12.6875 -34.34375 Z M 14.421875 -27.53125 C 14.503906 -27.445312 14.566406 -27.363281 14.609375 -27.28125 C 14.523438 -27.363281 14.460938 -27.445312 14.421875 -27.53125 Z M 14.421875 -27.53125 "/></g></g></g><g fill="#ffffff" fill-opacity="1"><g transform="translate(155.837328, 208.874986)"><g><path d="M 22.703125 -3.953125 C 23.691406 2.847656 23.425781 8.414062 21.90625 12.75 C 20.875 15.675781 19.285156 17.878906 17.140625 19.359375 C 15.691406 20.390625 14 21.050781 12.0625 21.34375 C 10.125 21.632812 8.3125 21.488281 6.625 20.90625 C 5.257812 20.457031 4.039062 19.695312 2.96875 18.625 C 1.894531 17.550781 1.078125 16.34375 0.515625 15 C -0.0351562 13.664062 -0.28125 12.234375 -0.21875 10.703125 C -0.15625 9.179688 0.285156 7.800781 1.109375 6.5625 C 2.097656 5.03125 3.4375 4.046875 5.125 3.609375 C 6.820312 3.179688 8.394531 3.585938 9.84375 4.828125 C 10.582031 5.566406 11.023438 6.523438 11.171875 7.703125 C 11.316406 8.878906 11.066406 9.921875 10.421875 10.828125 C 9.785156 11.734375 8.847656 12.144531 7.609375 12.0625 C 6.785156 11.976562 6.332031 11.554688 6.25 10.796875 C 6.164062 10.035156 6.492188 9.488281 7.234375 9.15625 C 7.898438 8.90625 8.097656 8.5 7.828125 7.9375 C 7.554688 7.382812 7.09375 7.148438 6.4375 7.234375 C 5.40625 7.359375 4.640625 8.019531 4.140625 9.21875 C 3.773438 10.082031 3.679688 10.988281 3.859375 11.9375 C 4.046875 12.882812 4.453125 13.734375 5.078125 14.484375 C 6.359375 16.128906 8.171875 16.6875 10.515625 16.15625 C 11.835938 15.90625 12.910156 15.488281 13.734375 14.90625 C 13.941406 14.75 14.046875 14.671875 14.046875 14.671875 C 14.253906 14.460938 14.421875 14.296875 14.546875 14.171875 C 14.628906 14.085938 14.726562 13.984375 14.84375 13.859375 C 14.84375 13.859375 14.863281 13.828125 14.90625 13.765625 C 14.945312 13.703125 14.96875 13.671875 14.96875 13.671875 C 16.625 11.203125 17.472656 7.550781 17.515625 2.71875 C 17.515625 0.820312 17.390625 -1.113281 17.140625 -3.09375 C 17.140625 -3.21875 17.140625 -3.300781 17.140625 -3.34375 C 17.054688 -3.707031 16.992188 -4.097656 16.953125 -4.515625 C 16.828125 -5.253906 16.703125 -6.039062 16.578125 -6.875 C 16.335938 -8.726562 16.132812 -10.375 15.96875 -11.8125 C 15.800781 -13.257812 15.695312 -14.210938 15.65625 -14.671875 C 14.082031 -12.804688 12.207031 -11.832031 10.03125 -11.75 C 8.789062 -11.707031 7.59375 -12.015625 6.4375 -12.671875 C 5.28125 -13.335938 4.335938 -14.207031 3.609375 -15.28125 C 2.890625 -16.351562 2.410156 -17.507812 2.171875 -18.75 C 1.878906 -20.269531 1.773438 -22.289062 1.859375 -24.8125 C 1.941406 -28.15625 2.207031 -30.523438 2.65625 -31.921875 C 2.988281 -32.953125 3.710938 -33.46875 4.828125 -33.46875 C 5.941406 -33.46875 6.644531 -32.953125 6.9375 -31.921875 C 7.132812 -31.140625 7.285156 -30.285156 7.390625 -29.359375 C 7.492188 -28.429688 7.546875 -27.5625 7.546875 -26.75 C 7.546875 -25.945312 7.546875 -25.09375 7.546875 -24.1875 C 7.546875 -23.28125 7.566406 -22.414062 7.609375 -21.59375 C 7.609375 -21.132812 7.640625 -20.675781 7.703125 -20.21875 C 7.765625 -19.769531 7.878906 -19.273438 8.046875 -18.734375 C 8.210938 -18.203125 8.46875 -17.769531 8.8125 -17.4375 C 9.164062 -17.113281 9.570312 -16.972656 10.03125 -17.015625 C 10.601562 -17.054688 11.101562 -17.25 11.53125 -17.59375 C 11.96875 -17.945312 12.320312 -18.453125 12.59375 -19.109375 C 12.863281 -19.773438 13.066406 -20.3125 13.203125 -20.71875 C 13.347656 -21.132812 13.484375 -21.675781 13.609375 -22.34375 C 14.109375 -24.363281 14.421875 -25.890625 14.546875 -26.921875 C 14.585938 -27.203125 14.628906 -27.703125 14.671875 -28.421875 C 14.710938 -29.148438 14.769531 -29.757812 14.84375 -30.25 C 14.925781 -30.75 15.070312 -31.207031 15.28125 -31.625 C 15.320312 -31.695312 15.363281 -31.773438 15.40625 -31.859375 C 15.445312 -31.898438 15.46875 -31.953125 15.46875 -32.015625 C 15.46875 -32.078125 15.46875 -32.128906 15.46875 -32.171875 C 15.550781 -32.546875 15.710938 -32.84375 15.953125 -33.0625 C 16.203125 -33.289062 16.492188 -33.4375 16.828125 -33.5 C 17.160156 -33.5625 17.488281 -33.5625 17.8125 -33.5 C 18.144531 -33.4375 18.4375 -33.28125 18.6875 -33.03125 C 18.9375 -32.789062 19.101562 -32.503906 19.1875 -32.171875 C 19.507812 -30.734375 19.765625 -29.21875 19.953125 -27.625 C 20.140625 -26.039062 20.316406 -24.15625 20.484375 -21.96875 C 20.648438 -19.78125 20.773438 -18.253906 20.859375 -17.390625 C 21.054688 -15.492188 21.671875 -11.015625 22.703125 -3.953125 Z M 22.703125 -3.953125 "/></g></g></g></svg>