<svg xmlns="http://www.w3.org/2000/svg" xmlns:xlink="http://www.w3.org/1999/xlink" width="500" zoomAndPan="magnify" viewBox="0 0 375 374.999991" height="500" preserveAspectRatio="xMidYMid meet" version="1.0"><defs><g/><clipPath id="id1"><path d="M 48 108.578125 L 172 108.578125 L 172 233 L 48 233 Z M 48 108.578125 " clip-rule="nonzero"/></clipPath><clipPath id="id2"><path d="M 45.996094 122 L 174.867188 122 L 174.867188 253.328125 L 45.996094 253.328125 Z M 45.996094 122 " clip-rule="nonzero"/></clipPath></defs><g clip-path="url(#id1)"><path fill="#4fd1c5" d="M 171.996094 209.402344 L 110.496094 232.996094 L 48.992188 209.402344 L 48.992188 108.648438 L 110.496094 132.238281 L 171.996094 108.648438 L 171.996094 209.402344 " fill-opacity="1" fill-rule="nonzero"/></g><g clip-path="url(#id2)"><path fill="#000000" d="M 172.792969 229.628906 C 159.328125 234.792969 145.867188 239.957031 132.402344 245.125 C 125.84375 247.640625 119.285156 250.15625 112.726562 252.675781 C 111.503906 253.140625 110.492188 253.527344 109.167969 253.019531 C 107.09375 252.222656 105.019531 251.425781 102.9375 250.632812 C 86.589844 244.359375 70.242188 238.089844 53.894531 231.816406 C 51.996094 231.085938 50.09375 230.359375 48.195312 229.628906 C 46.933594 229.144531 45.996094 228.175781 45.996094 226.746094 C 45.996094 215.148438 45.996094 203.558594 45.996094 191.964844 L 45.996094 125.988281 C 45.996094 124.1875 47.9375 122.394531 49.789062 123.101562 C 63.25 128.265625 76.714844 133.429688 90.175781 138.59375 C 97.214844 141.296875 104.253906 143.996094 111.292969 146.691406 L 109.699219 146.691406 C 123.160156 141.527344 136.621094 136.363281 150.085938 131.203125 C 157.125 128.5 164.164062 125.800781 171.203125 123.101562 C 173.050781 122.394531 174.992188 124.1875 174.992188 125.988281 L 174.992188 226.746094 C 174.992188 230.605469 169 230.605469 169 226.746094 L 169 125.988281 C 170.265625 126.949219 171.527344 127.910156 172.792969 128.875 C 159.328125 134.039062 145.867188 139.199219 132.402344 144.363281 C 125.84375 146.882812 119.28125 149.398438 112.722656 151.914062 C 111.5 152.382812 110.488281 152.765625 109.167969 152.261719 C 107.09375 151.464844 105.015625 150.667969 102.9375 149.871094 C 86.589844 143.601562 70.242188 137.332031 53.890625 131.058594 C 51.992188 130.332031 50.09375 129.601562 48.195312 128.875 C 49.457031 127.910156 50.722656 126.949219 51.984375 125.988281 L 51.984375 226.746094 C 51.253906 225.789062 50.519531 224.824219 49.789062 223.863281 C 63.25 229.027344 76.710938 234.191406 90.175781 239.355469 C 97.214844 242.058594 104.253906 244.757812 111.289062 247.457031 L 109.695312 247.457031 C 123.15625 242.292969 136.621094 237.128906 150.085938 231.960938 C 157.125 229.261719 164.160156 226.5625 171.199219 223.863281 C 172.726562 223.277344 174.484375 224.496094 174.882812 225.953125 C 175.347656 227.640625 174.3125 229.046875 172.789062 229.632812 " fill-opacity="1" fill-rule="nonzero"/></g><g fill="#ffffff" fill-opacity="1"><g transform="translate(48.946793, 208.391487)"><g><path d="M 69.078125 -22.015625 C 69.515625 -21.960938 69.878906 -21.707031 70.171875 -21.25 C 70.460938 -20.789062 70.5625 -20.316406 70.46875 -19.828125 C 70.363281 -18.816406 69.707031 -18.238281 68.5 -18.09375 C 62.738281 -17.363281 58.304688 -16.585938 55.203125 -15.765625 C 54.429688 -12.515625 53.34375 -9.171875 51.9375 -5.734375 C 50.238281 -1.566406 48.46875 2 46.625 4.96875 C 44.789062 7.945312 42.492188 10.3125 39.734375 12.0625 C 38.140625 13.125 36.421875 13.773438 34.578125 14.015625 C 32.734375 14.265625 30.914062 14 29.125 13.21875 C 27.71875 12.488281 26.539062 11.429688 25.59375 10.046875 C 24.65625 8.671875 24.160156 7.234375 24.109375 5.734375 C 23.972656 3.078125 25.40625 0.00390625 28.40625 -3.484375 C 30.488281 -6.003906 32.617188 -8.1875 34.796875 -10.03125 C 38.566406 -13.363281 42.707031 -16.070312 47.21875 -18.15625 C 48.375 -23.050781 48.785156 -27.601562 48.453125 -31.8125 C 48.015625 -37.09375 46.316406 -41.816406 43.359375 -45.984375 C 40.597656 -49.859375 36.65625 -52.710938 31.53125 -54.546875 C 28.1875 -55.804688 24.550781 -56.414062 20.625 -56.375 C 20.875 -54.144531 21.019531 -49.59375 21.0625 -42.71875 C 21.0625 -41.644531 21.070312 -39.410156 21.09375 -36.015625 C 21.125 -32.628906 21.140625 -30.019531 21.140625 -28.1875 C 21.140625 -20.632812 21.140625 -15.789062 21.140625 -13.65625 C 21.085938 -11.132812 21.085938 -8.738281 21.140625 -6.46875 C 21.140625 -3.03125 20.992188 -0.65625 20.703125 0.65625 C 20.460938 1.476562 19.96875 2.046875 19.21875 2.359375 C 18.46875 2.671875 17.703125 2.65625 16.921875 2.3125 C 16.148438 1.976562 15.644531 1.425781 15.40625 0.65625 C 15.0625 -0.601562 14.816406 -3.050781 14.671875 -6.6875 C 14.578125 -8.957031 14.503906 -11.28125 14.453125 -13.65625 C 14.304688 -18.0625 14.210938 -23 14.171875 -28.46875 C 14.117188 -30.601562 14.140625 -35.546875 14.234375 -43.296875 C 14.285156 -48.960938 14.457031 -53.101562 14.75 -55.71875 C 13.582031 -55.375 12.46875 -54.890625 11.40625 -54.265625 C 10.195312 -53.535156 9.128906 -52.648438 8.203125 -51.609375 C 7.285156 -50.566406 7.046875 -49.539062 7.484375 -48.53125 C 7.722656 -47.894531 7.632812 -47.273438 7.21875 -46.671875 C 6.8125 -46.066406 6.316406 -45.765625 5.734375 -45.765625 C 5.148438 -45.765625 4.664062 -46.078125 4.28125 -46.703125 C 3.945312 -47.484375 3.742188 -48.25 3.671875 -49 C 3.597656 -49.75 3.644531 -50.4375 3.8125 -51.0625 C 3.976562 -51.695312 4.242188 -52.328125 4.609375 -52.953125 C 4.972656 -53.585938 5.410156 -54.15625 5.921875 -54.65625 C 6.429688 -55.164062 7.007812 -55.660156 7.65625 -56.140625 C 8.3125 -56.628906 8.96875 -57.066406 9.625 -57.453125 C 10.28125 -57.847656 10.96875 -58.238281 11.6875 -58.625 C 12.414062 -59.007812 13.09375 -59.320312 13.71875 -59.5625 C 14.351562 -59.800781 14.988281 -60.046875 15.625 -60.296875 C 18.863281 -61.410156 22.140625 -61.953125 25.453125 -61.921875 C 28.773438 -61.898438 32.054688 -61.40625 35.296875 -60.4375 C 37.578125 -59.757812 39.734375 -58.828125 41.765625 -57.640625 C 43.796875 -56.453125 45.660156 -55.035156 47.359375 -53.390625 C 49.054688 -51.742188 50.535156 -49.90625 51.796875 -47.875 C 55.273438 -42.300781 56.96875 -35.691406 56.875 -28.046875 C 56.875 -25.910156 56.707031 -23.703125 56.375 -21.421875 C 60.78125 -22.441406 65.015625 -22.640625 69.078125 -22.015625 Z M 38.859375 1.453125 C 41.328125 -1.890625 43.484375 -6.296875 45.328125 -11.765625 C 42.328125 -10.171875 39.664062 -8.285156 37.34375 -6.109375 C 35.207031 -4.171875 33.507812 -2.304688 32.25 -0.515625 C 32.25 -0.515625 32.101562 -0.3125 31.8125 0.09375 C 31.519531 0.507812 31.3125 0.816406 31.1875 1.015625 C 31.070312 1.210938 30.894531 1.515625 30.65625 1.921875 C 30.414062 2.335938 30.242188 2.691406 30.140625 2.984375 C 30.046875 3.273438 29.945312 3.585938 29.84375 3.921875 C 29.75 4.265625 29.738281 4.578125 29.8125 4.859375 C 29.882812 5.148438 29.992188 5.421875 30.140625 5.671875 C 30.628906 6.003906 31.257812 6.171875 32.03125 6.171875 C 32.8125 6.171875 33.414062 6.097656 33.84375 5.953125 C 35.445312 5.328125 37.117188 3.828125 38.859375 1.453125 Z M 38.859375 1.453125 "/></g></g></g><g fill="#ffffff" fill-opacity="1"><g transform="translate(109.877688, 208.391487)"><g><path d="M 26.078125 -28.1875 C 26.554688 -28.8125 27.179688 -28.894531 27.953125 -28.4375 C 28.734375 -27.976562 28.976562 -27.382812 28.6875 -26.65625 C 27.625 -24.09375 26.003906 -21.898438 23.828125 -20.078125 C 21.648438 -18.265625 19.226562 -17.117188 16.5625 -16.640625 C 13.800781 -16.203125 11.570312 -16.273438 9.875 -16.859375 C 7.257812 -17.867188 5.300781 -19.609375 4 -22.078125 C 3.125 -23.828125 2.597656 -25.71875 2.421875 -27.75 C 2.253906 -29.78125 2.519531 -31.785156 3.21875 -33.765625 C 3.925781 -35.753906 5.082031 -37.304688 6.6875 -38.421875 C 9.101562 -40.117188 11.523438 -40.65625 13.953125 -40.03125 C 16.460938 -39.351562 17.695312 -37.488281 17.65625 -34.4375 C 17.65625 -32.007812 16.960938 -29.910156 15.578125 -28.140625 C 14.203125 -26.378906 12.375 -25.28125 10.09375 -24.84375 C 10.726562 -23.726562 11.613281 -23.035156 12.75 -22.765625 C 13.882812 -22.503906 15.253906 -22.445312 16.859375 -22.59375 C 18.648438 -22.78125 20.03125 -23.21875 21 -23.90625 C 23.507812 -25.695312 25.203125 -27.125 26.078125 -28.1875 Z M 12.5625 -35.296875 C 11.15625 -34.765625 10.160156 -33.734375 9.578125 -32.203125 C 9.003906 -30.679688 8.863281 -29.097656 9.15625 -27.453125 C 11.238281 -28.128906 12.738281 -29.34375 13.65625 -31.09375 C 14.28125 -32.207031 14.523438 -33.320312 14.390625 -34.4375 C 14.335938 -35.0625 14.164062 -35.429688 13.875 -35.546875 C 13.582031 -35.671875 13.144531 -35.585938 12.5625 -35.296875 Z M 12.5625 -35.296875 "/></g></g></g><g fill="#ffffff" fill-opacity="1"><g transform="translate(131.664657, 208.391487)"><g><path d="M 31.8125 -38.421875 C 32.445312 -39.097656 33.140625 -39.132812 33.890625 -38.53125 C 34.640625 -37.925781 34.769531 -37.257812 34.28125 -36.53125 C 33.507812 -35.226562 32.429688 -34.25 31.046875 -33.59375 C 29.671875 -32.9375 28.253906 -32.828125 26.796875 -33.265625 C 25.640625 -33.609375 24.675781 -34.238281 23.90625 -35.15625 C 23.707031 -34.332031 23.5625 -33.703125 23.46875 -33.265625 C 23.21875 -32.441406 22.921875 -31.28125 22.578125 -29.78125 C 22.242188 -28.28125 22.03125 -27.359375 21.9375 -27.015625 C 21.789062 -26.335938 21.597656 -25.625 21.359375 -24.875 C 21.117188 -24.125 20.898438 -23.46875 20.703125 -22.90625 C 20.503906 -22.351562 20.234375 -21.664062 19.890625 -20.84375 C 19.554688 -20.019531 19.304688 -19.390625 19.140625 -18.953125 C 18.972656 -18.523438 18.679688 -17.828125 18.265625 -16.859375 C 17.859375 -15.890625 17.582031 -15.257812 17.4375 -14.96875 C 17.050781 -14.09375 16.300781 -13.59375 15.1875 -13.46875 C 14.070312 -13.351562 13.25 -13.632812 12.71875 -14.3125 C 12.375 -14.75 12.054688 -15.179688 11.765625 -15.609375 C 11.472656 -16.046875 11.191406 -16.566406 10.921875 -17.171875 C 10.660156 -17.785156 10.457031 -18.269531 10.3125 -18.625 C 10.164062 -18.988281 9.945312 -19.535156 9.65625 -20.265625 C 9.363281 -20.992188 9.171875 -21.476562 9.078125 -21.71875 C 8.054688 -24.238281 7.1875 -26.515625 6.46875 -28.546875 C 5.644531 -30.867188 4.914062 -33.316406 4.28125 -35.890625 C 4.238281 -36.035156 4.144531 -36.421875 4 -37.046875 C 3.851562 -37.671875 3.753906 -38.082031 3.703125 -38.28125 C 3.648438 -38.476562 3.5625 -38.898438 3.4375 -39.546875 C 3.320312 -40.203125 3.265625 -40.625 3.265625 -40.8125 C 3.265625 -41.007812 3.238281 -41.421875 3.1875 -42.046875 C 3.144531 -42.679688 3.171875 -43.097656 3.265625 -43.296875 C 3.367188 -44.023438 3.742188 -44.554688 4.390625 -44.890625 C 5.046875 -45.234375 5.640625 -45.113281 6.171875 -44.53125 C 6.554688 -44.039062 6.914062 -43.476562 7.25 -42.84375 C 7.59375 -42.21875 7.835938 -41.75 7.984375 -41.4375 C 8.128906 -41.125 8.40625 -40.484375 8.8125 -39.515625 C 9.226562 -38.546875 9.460938 -38.015625 9.515625 -37.921875 C 10.578125 -35.304688 11.5 -33.03125 12.28125 -31.09375 C 13.726562 -27.3125 14.644531 -24.960938 15.03125 -24.046875 C 15.082031 -23.847656 15.15625 -23.65625 15.25 -23.46875 C 15.5 -23.945312 15.78125 -24.5 16.09375 -25.125 C 16.40625 -25.757812 16.707031 -26.40625 17 -27.0625 C 17.289062 -27.71875 17.554688 -28.285156 17.796875 -28.765625 C 18.816406 -30.898438 19.613281 -32.8125 20.1875 -34.5 C 21.445312 -37.988281 22.128906 -39.925781 22.234375 -40.3125 C 22.378906 -40.988281 22.847656 -41.328125 23.640625 -41.328125 C 24.441406 -41.328125 24.914062 -40.988281 25.0625 -40.3125 C 25.300781 -38.664062 26.21875 -37.632812 27.8125 -37.21875 C 29.414062 -36.8125 30.75 -37.210938 31.8125 -38.421875 Z M 31.8125 -38.421875 "/></g></g></g><g fill="#ff1616" fill-opacity="1"><g transform="translate(157.507352, 208.391487)"><g/></g></g><g fill="#000000" fill-opacity="1"><g transform="translate(174.705646, 208.391487)"><g><path d="M 69.078125 -22.015625 C 69.515625 -21.960938 69.878906 -21.707031 70.171875 -21.25 C 70.460938 -20.789062 70.5625 -20.316406 70.46875 -19.828125 C 70.363281 -18.816406 69.707031 -18.238281 68.5 -18.09375 C 62.738281 -17.363281 58.304688 -16.585938 55.203125 -15.765625 C 54.429688 -12.515625 53.34375 -9.171875 51.9375 -5.734375 C 50.238281 -1.566406 48.46875 2 46.625 4.96875 C 44.789062 7.945312 42.492188 10.3125 39.734375 12.0625 C 38.140625 13.125 36.421875 13.773438 34.578125 14.015625 C 32.734375 14.265625 30.914062 14 29.125 13.21875 C 27.71875 12.488281 26.539062 11.429688 25.59375 10.046875 C 24.65625 8.671875 24.160156 7.234375 24.109375 5.734375 C 23.972656 3.078125 25.40625 0.00390625 28.40625 -3.484375 C 30.488281 -6.003906 32.617188 -8.1875 34.796875 -10.03125 C 38.566406 -13.363281 42.707031 -16.070312 47.21875 -18.15625 C 48.375 -23.050781 48.785156 -27.601562 48.453125 -31.8125 C 48.015625 -37.09375 46.316406 -41.816406 43.359375 -45.984375 C 40.597656 -49.859375 36.65625 -52.710938 31.53125 -54.546875 C 28.1875 -55.804688 24.550781 -56.414062 20.625 -56.375 C 20.875 -54.144531 21.019531 -49.59375 21.0625 -42.71875 C 21.0625 -41.644531 21.070312 -39.410156 21.09375 -36.015625 C 21.125 -32.628906 21.140625 -30.019531 21.140625 -28.1875 C 21.140625 -20.632812 21.140625 -15.789062 21.140625 -13.65625 C 21.085938 -11.132812 21.085938 -8.738281 21.140625 -6.46875 C 21.140625 -3.03125 20.992188 -0.65625 20.703125 0.65625 C 20.460938 1.476562 19.96875 2.046875 19.21875 2.359375 C 18.46875 2.671875 17.703125 2.65625 16.921875 2.3125 C 16.148438 1.976562 15.644531 1.425781 15.40625 0.65625 C 15.0625 -0.601562 14.816406 -3.050781 14.671875 -6.6875 C 14.578125 -8.957031 14.503906 -11.28125 14.453125 -13.65625 C 14.304688 -18.0625 14.210938 -23 14.171875 -28.46875 C 14.117188 -30.601562 14.140625 -35.546875 14.234375 -43.296875 C 14.285156 -48.960938 14.457031 -53.101562 14.75 -55.71875 C 13.582031 -55.375 12.46875 -54.890625 11.40625 -54.265625 C 10.195312 -53.535156 9.128906 -52.648438 8.203125 -51.609375 C 7.285156 -50.566406 7.046875 -49.539062 7.484375 -48.53125 C 7.722656 -47.894531 7.632812 -47.273438 7.21875 -46.671875 C 6.8125 -46.066406 6.316406 -45.765625 5.734375 -45.765625 C 5.148438 -45.765625 4.664062 -46.078125 4.28125 -46.703125 C 3.945312 -47.484375 3.742188 -48.25 3.671875 -49 C 3.597656 -49.75 3.644531 -50.4375 3.8125 -51.0625 C 3.976562 -51.695312 4.242188 -52.328125 4.609375 -52.953125 C 4.972656 -53.585938 5.410156 -54.15625 5.921875 -54.65625 C 6.429688 -55.164062 7.007812 -55.660156 7.65625 -56.140625 C 8.3125 -56.628906 8.96875 -57.066406 9.625 -57.453125 C 10.28125 -57.847656 10.96875 -58.238281 11.6875 -58.625 C 12.414062 -59.007812 13.09375 -59.320312 13.71875 -59.5625 C 14.351562 -59.800781 14.988281 -60.046875 15.625 -60.296875 C 18.863281 -61.410156 22.140625 -61.953125 25.453125 -61.921875 C 28.773438 -61.898438 32.054688 -61.40625 35.296875 -60.4375 C 37.578125 -59.757812 39.734375 -58.828125 41.765625 -57.640625 C 43.796875 -56.453125 45.660156 -55.035156 47.359375 -53.390625 C 49.054688 -51.742188 50.535156 -49.90625 51.796875 -47.875 C 55.273438 -42.300781 56.96875 -35.691406 56.875 -28.046875 C 56.875 -25.910156 56.707031 -23.703125 56.375 -21.421875 C 60.78125 -22.441406 65.015625 -22.640625 69.078125 -22.015625 Z M 38.859375 1.453125 C 41.328125 -1.890625 43.484375 -6.296875 45.328125 -11.765625 C 42.328125 -10.171875 39.664062 -8.285156 37.34375 -6.109375 C 35.207031 -4.171875 33.507812 -2.304688 32.25 -0.515625 C 32.25 -0.515625 32.101562 -0.3125 31.8125 0.09375 C 31.519531 0.507812 31.3125 0.816406 31.1875 1.015625 C 31.070312 1.210938 30.894531 1.515625 30.65625 1.921875 C 30.414062 2.335938 30.242188 2.691406 30.140625 2.984375 C 30.046875 3.273438 29.945312 3.585938 29.84375 3.921875 C 29.75 4.265625 29.738281 4.578125 29.8125 4.859375 C 29.882812 5.148438 29.992188 5.421875 30.140625 5.671875 C 30.628906 6.003906 31.257812 6.171875 32.03125 6.171875 C 32.8125 6.171875 33.414062 6.097656 33.84375 5.953125 C 35.445312 5.328125 37.117188 3.828125 38.859375 1.453125 Z M 38.859375 1.453125 "/></g></g></g><g fill="#000000" fill-opacity="1"><g transform="translate(235.636542, 208.391487)"><g><path d="M 18.890625 -26.65625 C 19.566406 -27.289062 20.253906 -27.335938 20.953125 -26.796875 C 21.660156 -26.265625 21.816406 -25.585938 21.421875 -24.765625 C 20.890625 -23.648438 20.269531 -22.609375 19.5625 -21.640625 C 18.863281 -20.671875 18.054688 -19.773438 17.140625 -18.953125 C 16.222656 -18.128906 15.265625 -17.488281 14.265625 -17.03125 C 13.273438 -16.570312 12.1875 -16.390625 11 -16.484375 C 9.8125 -16.585938 8.640625 -17.023438 7.484375 -17.796875 C 6.128906 -18.671875 5.085938 -19.894531 4.359375 -21.46875 C 3.628906 -23.039062 3.289062 -24.675781 3.34375 -26.375 C 3.394531 -27.4375 3.5625 -29.203125 3.84375 -31.671875 C 4.132812 -34.191406 4.453125 -35.957031 4.796875 -36.96875 C 5.085938 -37.789062 5.628906 -38.335938 6.421875 -38.609375 C 7.222656 -38.878906 7.960938 -38.796875 8.640625 -38.359375 C 9.316406 -37.921875 9.65625 -37.242188 9.65625 -36.328125 C 9.757812 -34.960938 9.59375 -32.222656 9.15625 -28.109375 C 8.914062 -25.492188 9.226562 -23.582031 10.09375 -22.375 C 10.625 -21.738281 11.203125 -21.394531 11.828125 -21.34375 C 12.460938 -21.300781 13.144531 -21.519531 13.875 -22 C 14.601562 -22.488281 15.234375 -22.972656 15.765625 -23.453125 C 16.296875 -23.941406 16.898438 -24.5625 17.578125 -25.3125 C 18.253906 -26.0625 18.691406 -26.507812 18.890625 -26.65625 Z M 10.53125 -43.4375 C 10.050781 -42.46875 9.226562 -41.984375 8.0625 -41.984375 C 6.894531 -41.984375 6.082031 -42.46875 5.625 -43.4375 C 5.164062 -44.40625 5.164062 -45.359375 5.625 -46.296875 C 6.082031 -47.242188 6.894531 -47.71875 8.0625 -47.71875 C 9.226562 -47.71875 10.050781 -47.242188 10.53125 -46.296875 C 11.019531 -45.359375 11.019531 -44.40625 10.53125 -43.4375 Z M 10.53125 -43.4375 "/></g></g></g><g fill="#000000" fill-opacity="1"><g transform="translate(250.161187, 208.391487)"><g><path d="M 31.09375 -28.25 C 31.570312 -28.6875 32.148438 -28.734375 32.828125 -28.390625 C 33.503906 -28.054688 33.722656 -27.550781 33.484375 -26.875 C 33.191406 -26 32.78125 -25.078125 32.25 -24.109375 C 31.71875 -23.140625 31.097656 -22.160156 30.390625 -21.171875 C 29.691406 -20.179688 28.90625 -19.320312 28.03125 -18.59375 C 27.164062 -17.863281 26.269531 -17.28125 25.34375 -16.84375 C 24.425781 -16.414062 23.445312 -16.273438 22.40625 -16.421875 C 21.363281 -16.566406 20.382812 -17.050781 19.46875 -17.875 C 18.59375 -18.644531 17.914062 -19.632812 17.4375 -20.84375 C 15.644531 -19.050781 13.5625 -18.082031 11.1875 -17.9375 C 9.101562 -17.789062 7.257812 -18.273438 5.65625 -19.390625 C 4.0625 -20.503906 2.925781 -21.921875 2.25 -23.640625 C 1.570312 -25.359375 1.242188 -27.234375 1.265625 -29.265625 C 1.296875 -31.304688 1.769531 -33.148438 2.6875 -34.796875 C 3.5625 -36.492188 4.84375 -37.859375 6.53125 -38.890625 C 8.226562 -39.929688 10.019531 -40.429688 11.90625 -40.390625 C 15.101562 -40.390625 17.671875 -39.226562 19.609375 -36.90625 C 19.753906 -37.238281 19.992188 -37.753906 20.328125 -38.453125 C 20.671875 -39.160156 20.914062 -39.660156 21.0625 -39.953125 C 21.40625 -40.722656 22.023438 -40.914062 22.921875 -40.53125 C 23.816406 -40.144531 24.117188 -39.539062 23.828125 -38.71875 C 22.859375 -35.664062 22.109375 -32.757812 21.578125 -30 C 20.796875 -26.21875 20.960938 -23.484375 22.078125 -21.796875 C 22.421875 -21.265625 22.832031 -20.9375 23.3125 -20.8125 C 23.800781 -20.6875 24.285156 -20.769531 24.765625 -21.0625 C 25.253906 -21.351562 25.738281 -21.726562 26.21875 -22.1875 C 26.707031 -22.644531 27.203125 -23.203125 27.703125 -23.859375 C 28.210938 -24.515625 28.660156 -25.117188 29.046875 -25.671875 C 29.441406 -26.234375 29.832031 -26.753906 30.21875 -27.234375 C 30.601562 -27.722656 30.894531 -28.0625 31.09375 -28.25 Z M 10.171875 -24.265625 C 10.554688 -24.066406 10.953125 -23.96875 11.359375 -23.96875 C 11.773438 -23.96875 12.148438 -24.015625 12.484375 -24.109375 C 12.828125 -24.210938 13.164062 -24.375 13.5 -24.59375 C 13.84375 -24.8125 14.144531 -25.039062 14.40625 -25.28125 C 14.675781 -25.519531 14.96875 -25.820312 15.28125 -26.1875 C 15.601562 -26.550781 15.859375 -26.863281 16.046875 -27.125 C 16.242188 -27.394531 16.460938 -27.722656 16.703125 -28.109375 C 16.753906 -28.398438 16.804688 -28.664062 16.859375 -28.90625 C 17.097656 -30.3125 17.507812 -31.816406 18.09375 -33.421875 C 15.375 -35.640625 12.972656 -36.144531 10.890625 -34.9375 C 9.828125 -34.3125 9.03125 -33.394531 8.5 -32.1875 C 8.0625 -31.3125 7.816406 -30.34375 7.765625 -29.28125 C 7.765625 -28.882812 7.765625 -28.519531 7.765625 -28.1875 C 7.765625 -27.988281 7.765625 -27.890625 7.765625 -27.890625 C 7.816406 -27.847656 7.84375 -27.753906 7.84375 -27.609375 C 7.894531 -27.359375 7.96875 -27.066406 8.0625 -26.734375 C 8.15625 -26.492188 8.226562 -26.320312 8.28125 -26.21875 C 8.757812 -25.25 9.390625 -24.597656 10.171875 -24.265625 Z M 10.171875 -24.265625 "/></g></g></g><g fill="#000000" fill-opacity="1"><g transform="translate(276.305552, 208.391487)"><g><path d="M 14.890625 -40.3125 C 16.878906 -40.550781 18.5625 -39.976562 19.9375 -38.59375 C 21.320312 -37.21875 21.941406 -35.539062 21.796875 -33.5625 C 21.597656 -31.238281 20.703125 -29.613281 19.109375 -28.6875 C 18.035156 -28.007812 16.929688 -27.851562 15.796875 -28.21875 C 14.660156 -28.582031 13.921875 -29.347656 13.578125 -30.515625 C 13.285156 -31.523438 13.585938 -32.25 14.484375 -32.6875 C 15.378906 -33.125 16.171875 -33.003906 16.859375 -32.328125 C 17.140625 -32.472656 17.304688 -32.59375 17.359375 -32.6875 C 17.648438 -32.925781 17.84375 -33.3125 17.9375 -33.84375 C 18.132812 -34.8125 17.867188 -35.566406 17.140625 -36.109375 C 16.265625 -36.492188 15.414062 -36.539062 14.59375 -36.25 C 13.769531 -35.957031 13.019531 -35.5 12.34375 -34.875 C 11.1875 -33.757812 10.460938 -31.960938 10.171875 -29.484375 C 10.171875 -29.203125 10.171875 -29.007812 10.171875 -28.90625 C 10.316406 -27.363281 10.410156 -25.234375 10.453125 -22.515625 C 10.554688 -21.597656 10.570312 -20.484375 10.5 -19.171875 C 10.425781 -17.867188 10.195312 -16.804688 9.8125 -15.984375 C 9.375 -15.253906 8.765625 -14.910156 7.984375 -14.953125 C 7.210938 -15.003906 6.609375 -15.367188 6.171875 -16.046875 C 6.128906 -16.046875 6.109375 -16.023438 6.109375 -15.984375 C 5.859375 -16.367188 5.648438 -16.851562 5.484375 -17.4375 C 5.316406 -18.019531 5.207031 -18.46875 5.15625 -18.78125 C 5.101562 -19.09375 5.050781 -19.671875 5 -20.515625 C 4.957031 -21.367188 4.9375 -21.84375 4.9375 -21.9375 C 4.882812 -22.707031 4.785156 -23.804688 4.640625 -25.234375 C 4.503906 -26.671875 4.4375 -27.535156 4.4375 -27.828125 C 4.09375 -31.453125 3.628906 -35.25 3.046875 -39.21875 C 2.953125 -40.09375 3.253906 -40.769531 3.953125 -41.25 C 4.660156 -41.738281 5.351562 -41.644531 6.03125 -40.96875 C 7.144531 -39.851562 8.039062 -38.375 8.71875 -36.53125 C 10.363281 -38.71875 12.421875 -39.976562 14.890625 -40.3125 Z M 16.921875 -32.328125 C 17.023438 -32.234375 17.097656 -32.132812 17.140625 -32.03125 C 17.046875 -32.132812 16.972656 -32.234375 16.921875 -32.328125 Z M 16.921875 -32.328125 "/></g></g></g><g fill="#000000" fill-opacity="1"><g transform="translate(298.09252, 208.391487)"><g><path d="M 26.671875 -4.65625 C 27.828125 3.34375 27.507812 9.882812 25.71875 14.96875 C 24.507812 18.40625 22.644531 20.992188 20.125 22.734375 C 18.425781 23.941406 16.4375 24.710938 14.15625 25.046875 C 11.882812 25.390625 9.757812 25.222656 7.78125 24.546875 C 6.175781 24.015625 4.742188 23.117188 3.484375 21.859375 C 2.234375 20.597656 1.28125 19.179688 0.625 17.609375 C -0.03125 16.035156 -0.320312 14.351562 -0.25 12.5625 C -0.175781 10.769531 0.34375 9.148438 1.3125 7.703125 C 2.476562 5.910156 4.050781 4.757812 6.03125 4.25 C 8.019531 3.738281 9.863281 4.210938 11.5625 5.671875 C 12.425781 6.535156 12.941406 7.65625 13.109375 9.03125 C 13.285156 10.414062 13 11.640625 12.25 12.703125 C 11.5 13.773438 10.394531 14.265625 8.9375 14.171875 C 7.96875 14.066406 7.4375 13.566406 7.34375 12.671875 C 7.25 11.773438 7.632812 11.132812 8.5 10.75 C 9.28125 10.457031 9.507812 9.984375 9.1875 9.328125 C 8.875 8.679688 8.332031 8.40625 7.5625 8.5 C 6.351562 8.644531 5.457031 9.421875 4.875 10.828125 C 4.4375 11.835938 4.328125 12.898438 4.546875 14.015625 C 4.765625 15.128906 5.238281 16.125 5.96875 17 C 7.46875 18.9375 9.597656 19.585938 12.359375 18.953125 C 13.898438 18.660156 15.15625 18.175781 16.125 17.5 C 16.375 17.3125 16.5 17.21875 16.5 17.21875 C 16.738281 16.976562 16.929688 16.785156 17.078125 16.640625 C 17.171875 16.535156 17.289062 16.410156 17.4375 16.265625 C 17.4375 16.265625 17.457031 16.226562 17.5 16.15625 C 17.550781 16.082031 17.578125 16.046875 17.578125 16.046875 C 19.515625 13.140625 20.507812 8.859375 20.5625 3.203125 C 20.5625 0.972656 20.414062 -1.300781 20.125 -3.625 C 20.125 -3.769531 20.125 -3.867188 20.125 -3.921875 C 20.03125 -4.359375 19.957031 -4.816406 19.90625 -5.296875 C 19.757812 -6.171875 19.613281 -7.09375 19.46875 -8.0625 C 19.175781 -10.238281 18.9375 -12.175781 18.75 -13.875 C 18.550781 -15.570312 18.429688 -16.6875 18.390625 -17.21875 C 16.546875 -15.039062 14.335938 -13.898438 11.765625 -13.796875 C 10.316406 -13.753906 8.914062 -14.117188 7.5625 -14.890625 C 6.207031 -15.660156 5.101562 -16.675781 4.25 -17.9375 C 3.40625 -19.195312 2.835938 -20.554688 2.546875 -22.015625 C 2.210938 -23.804688 2.09375 -26.175781 2.1875 -29.125 C 2.28125 -33.050781 2.59375 -35.835938 3.125 -37.484375 C 3.507812 -38.691406 4.351562 -39.296875 5.65625 -39.296875 C 6.96875 -39.296875 7.796875 -38.691406 8.140625 -37.484375 C 8.378906 -36.566406 8.5625 -35.5625 8.6875 -34.46875 C 8.8125 -33.375 8.875 -32.351562 8.875 -31.40625 C 8.875 -30.46875 8.875 -29.460938 8.875 -28.390625 C 8.875 -27.328125 8.894531 -26.316406 8.9375 -25.359375 C 8.9375 -24.816406 8.972656 -24.28125 9.046875 -23.75 C 9.117188 -23.21875 9.25 -22.632812 9.4375 -22 C 9.632812 -21.375 9.9375 -20.867188 10.34375 -20.484375 C 10.757812 -20.097656 11.234375 -19.925781 11.765625 -19.96875 C 12.453125 -20.019531 13.046875 -20.25 13.546875 -20.65625 C 14.054688 -21.070312 14.46875 -21.664062 14.78125 -22.4375 C 15.101562 -23.21875 15.347656 -23.847656 15.515625 -24.328125 C 15.679688 -24.816406 15.835938 -25.445312 15.984375 -26.21875 C 16.566406 -28.59375 16.929688 -30.382812 17.078125 -31.59375 C 17.128906 -31.9375 17.175781 -32.53125 17.21875 -33.375 C 17.269531 -34.226562 17.34375 -34.941406 17.4375 -35.515625 C 17.53125 -36.097656 17.703125 -36.632812 17.953125 -37.125 C 17.992188 -37.21875 18.039062 -37.3125 18.09375 -37.40625 C 18.144531 -37.457031 18.171875 -37.519531 18.171875 -37.59375 C 18.171875 -37.664062 18.171875 -37.722656 18.171875 -37.765625 C 18.265625 -38.203125 18.457031 -38.550781 18.75 -38.8125 C 19.039062 -39.082031 19.378906 -39.253906 19.765625 -39.328125 C 20.148438 -39.398438 20.535156 -39.398438 20.921875 -39.328125 C 21.304688 -39.253906 21.644531 -39.070312 21.9375 -38.78125 C 22.226562 -38.5 22.425781 -38.160156 22.53125 -37.765625 C 22.914062 -36.078125 23.21875 -34.300781 23.4375 -32.4375 C 23.65625 -30.570312 23.859375 -28.351562 24.046875 -25.78125 C 24.242188 -23.21875 24.390625 -21.425781 24.484375 -20.40625 C 24.722656 -18.1875 25.453125 -12.9375 26.671875 -4.65625 Z M 26.671875 -4.65625 "/></g></g></g></svg>